<svg version="1.1" xmlns="http://www.w3.org/2000/svg" viewBox="-2562.0847726761576 -1562.2400848388672 6686.756961625742 2367.7440856933595"><desc>Created with Snap</desc><defs></defs><g><g transform="matrix(21.9168,0,0,21.9168,-2364.4688,-1502.7)"><g><g><circle cx="49" cy="40.8" r="6.2" fill="#e4473e" style=""></circle></g><g><g><path d="M84.9,11.3H15c-5.5,0-10,4.5-10,10v40.6c0,5.5,4.5,10,10,10h39l19.9,19.4l0-19.4h10.9c5.5,0,10-4.5,10-10V21.3     C94.9,15.8,90.4,11.3,84.9,11.3z M61.9,40.8c0,0.9-0.1,1.7-0.3,2.6l1.8,1.3c0.7,0.5,0.9,1.4,0.5,2.2l-2.3,3.9     c-0.4,0.7-1.3,1-2.1,0.7l-2-0.9c-1.3,1.1-2.8,2-4.5,2.6l-0.2,2.2c-0.1,0.8-0.8,1.5-1.6,1.5l-4.5,0c-0.9,0-1.6-0.7-1.6-1.5     L44.9,53c-1.7-0.6-3.2-1.4-4.5-2.6l-2.1,0.9c-0.8,0.4-1.7,0.1-2.1-0.7L34,46.8c-0.4-0.7-0.2-1.7,0.5-2.2l1.8-1.3     c-0.2-0.8-0.3-1.7-0.3-2.6s0.1-1.7,0.3-2.6l-1.8-1.3c-0.7-0.5-0.9-1.4-0.5-2.2l2.3-3.9c0.4-0.7,1.3-1,2.1-0.7l2.1,0.9     c1.3-1.1,2.8-2,4.5-2.6l0.2-2.2c0.1-0.8,0.8-1.5,1.6-1.5h4.5c0.9,0,1.6,0.7,1.6,1.5l0.2,2.2c1.7,0.6,3.2,1.4,4.5,2.6l2-0.9     c0.8-0.4,1.7-0.1,2.1,0.7l2.3,3.9c0.4,0.7,0.2,1.7-0.5,2.2l-1.8,1.3C61.8,39,61.9,39.9,61.9,40.8z" fill="#e4473e" style=""></path></g></g></g><desc>Created with Snap</desc><defs></defs></g><g><g transform="matrix(1.024,0,0,-1.024,0,0)"><path d="M313 333L552 29Q558 22 558 14Q558 6 546 -3Q535 -11 526 -11Q517 -11 510 -2L278 293L156 151L156 13Q156 3 148 -4Q140 -10 129 -10Q118 -10 110 -4Q102 3 102 13L102 561L43 561Q33 561 26 567Q20 574 20 584Q20 594 26 601Q33 608 43 608L130 608Q156 608 156 584L156 226L441 561L416 561Q406 561 399 567Q393 574 393 584Q393 594 399 601Q406 608 416 608L560 608Q570 608 576 601Q583 594 583 584Q583 574 576 567Q570 561 560 561L508 561L313 333ZM1017 47L1064 47Q1074 47 1080 40Q1087 34 1087 24Q1087 14 1080 7Q1074 0 1064 0L1010 0Q948 0 948 68Q888 -10 797 -10Q743 -10 708 17Q674 45 674 98L674 308Q674 327 647 327L608 327Q598 327 591 334Q585 341 585 351Q585 361 591 367Q598 374 608 374L647 374Q728 374 728 309L728 98Q728 68 746 52Q765 36 798 36Q890 36 944 132L944 361Q944 371 952 377Q960 384 971 384Q982 384 990 377Q998 371 998 361L998 66Q998 47 1017 47ZM1214 245L1214 96Q1280 36 1342 36Q1405 36 1439 78Q1473 120 1473 189Q1473 258 1439 298Q1406 338 1348 338Q1266 338 1214 245ZM1160 13L1160 703L1094 703Q1084 703 1077 709Q1071 716 1071 726Q1071 736 1077 743Q1084 750 1094 750L1187 750Q1197 750 1205 743Q1214 736 1214 726L1214 308Q1265 384 1350 384Q1435 384 1480 330Q1526 276 1526 188Q1526 100 1479 45Q1432 -10 1354 -10Q1276 -10 1214 47L1214 13Q1214 3 1206 -4Q1198 -10 1187 -10Q1176 -10 1168 -4Q1160 3 1160 13ZM1915 220Q1912 274 1883 306Q1855 338 1801 338Q1748 338 1712 305Q1676 273 1667 220L1915 220ZM1917 96Q1924 108 1933 108Q1942 108 1951 103Q1960 99 1963 89Q1967 80 1962 72Q1911 -10 1800 -10Q1712 -10 1661 46Q1611 103 1611 189Q1611 275 1663 329Q1715 384 1800 384Q1885 384 1926 333Q1968 282 1968 197Q1968 174 1942 174L1665 173Q1669 111 1705 73Q1742 36 1800 36Q1878 36 1917 96ZM2355 96Q2363 108 2371 108Q2380 108 2389 104Q2403 98 2403 87Q2403 77 2400 72Q2349 -10 2238 -10Q2153 -10 2102 47Q2051 105 2051 189Q2051 273 2104 328Q2158 384 2237 384Q2317 384 2376 347Q2388 339 2388 328L2388 244Q2388 234 2380 227Q2372 221 2361 221Q2350 221 2342 227Q2334 234 2334 244L2334 315Q2294 338 2238 338Q2182 338 2143 296Q2104 254 2104 187Q2104 121 2141 78Q2179 36 2238 36Q2316 36 2355 96ZM2770 64Q2778 69 2788 67Q2799 65 2803 58Q2807 52 2807 47Q2807 32 2796 25Q2736 -10 2667 -10Q2598 -10 2568 18Q2538 47 2538 113L2538 327L2482 327Q2472 327 2465 333Q2459 340 2459 350Q2459 360 2465 367Q2472 374 2482 374L2538 374L2538 517Q2538 527 2546 533Q2554 540 2565 540Q2576 540 2584 533Q2592 527 2592 517L2592 374L2760 374Q2770 374 2776 367Q2783 360 2783 350Q2783 340 2776 333Q2770 327 2760 327L2592 327L2592 113Q2592 71 2609 53Q2627 36 2674 36Q2722 36 2770 64ZM2971 47L3010 47Q3020 47 3026 40Q3033 33 3033 23Q3033 13 3026 6Q3020 0 3010 0L2971 0Q2890 0 2890 65L2890 703L2824 703Q2814 703 2807 709Q2801 716 2801 726Q2801 736 2807 743Q2814 750 2824 750L2917 750Q2928 750 2936 743Q2944 736 2944 726L2944 66Q2944 47 2971 47ZM3248 336L3248 243L3342 243Q3352 243 3358 236Q3365 229 3365 219Q3365 209 3358 202Q3352 196 3342 196L3248 196L3248 103Q3248 93 3241 86Q3235 80 3225 80Q3215 80 3208 86Q3201 93 3201 103L3201 196L3109 196Q3099 196 3092 202Q3086 209 3086 219Q3086 229 3092 236Q3099 243 3109 243L3201 243L3201 336Q3201 346 3208 352Q3215 359 3225 359Q3235 359 3241 352Q3248 346 3248 336ZM3611 336L3611 243L3705 243Q3715 243 3721 236Q3728 229 3728 219Q3728 209 3721 202Q3715 196 3705 196L3611 196L3611 103Q3611 93 3604 86Q3598 80 3588 80Q3578 80 3571 86Q3564 93 3564 103L3564 196L3472 196Q3462 196 3455 202Q3449 209 3449 219Q3449 229 3455 236Q3462 243 3472 243L3564 243L3564 336Q3564 346 3571 352Q3578 359 3588 359Q3598 359 3604 352Q3611 346 3611 336Z" fill="#1a283f" style=""></path></g></g></g></svg>